<mxfile host="app.diagrams.net" modified="2024-04-27T14:36:04.030Z" agent="Mozilla/5.0 (Macintosh; Intel Mac OS X 10_15_7) AppleWebKit/537.36 (KHTML, like Gecko) Chrome/124.0.0.0 Safari/537.36" etag="OF0OTTzLH_69eEXRSZ2l" version="24.3.1" type="github" pages="3">
  <diagram name="Page-1" id="WfZBopaKg1FE4oJ8qaOc">
    <mxGraphModel dx="1972" dy="684" grid="1" gridSize="10" guides="1" tooltips="1" connect="1" arrows="1" fold="1" page="1" pageScale="1" pageWidth="850" pageHeight="1100" math="0" shadow="0">
      <root>
        <mxCell id="0" />
        <mxCell id="1" parent="0" />
        <mxCell id="ryvx49HEANuKhNEo4fZP-22" style="edgeStyle=orthogonalEdgeStyle;rounded=0;orthogonalLoop=1;jettySize=auto;html=1;exitX=0.25;exitY=1;exitDx=0;exitDy=0;" edge="1" parent="1" source="ryvx49HEANuKhNEo4fZP-1" target="ryvx49HEANuKhNEo4fZP-14">
          <mxGeometry relative="1" as="geometry" />
        </mxCell>
        <mxCell id="ryvx49HEANuKhNEo4fZP-25" style="edgeStyle=orthogonalEdgeStyle;rounded=0;orthogonalLoop=1;jettySize=auto;html=1;exitX=0.5;exitY=1;exitDx=0;exitDy=0;entryX=0.25;entryY=0;entryDx=0;entryDy=0;" edge="1" parent="1" source="ryvx49HEANuKhNEo4fZP-1" target="ryvx49HEANuKhNEo4fZP-17">
          <mxGeometry relative="1" as="geometry">
            <Array as="points">
              <mxPoint x="330" y="160" />
              <mxPoint x="330" y="265" />
              <mxPoint x="400" y="265" />
            </Array>
          </mxGeometry>
        </mxCell>
        <mxCell id="ryvx49HEANuKhNEo4fZP-1" value="Authentication" style="swimlane;whiteSpace=wrap;html=1;" vertex="1" parent="1">
          <mxGeometry x="230" y="50" width="210" height="110" as="geometry" />
        </mxCell>
        <mxCell id="ryvx49HEANuKhNEo4fZP-4" value="login() : Authentication&lt;div&gt;validateInput()&lt;/div&gt;" style="text;html=1;align=left;verticalAlign=middle;resizable=0;points=[];autosize=1;strokeColor=none;fillColor=none;" vertex="1" parent="ryvx49HEANuKhNEo4fZP-1">
          <mxGeometry x="10" y="25" width="140" height="40" as="geometry" />
        </mxCell>
        <mxCell id="ryvx49HEANuKhNEo4fZP-2" value="" style="ellipse;html=1;shape=endState;fillColor=#000000;strokeColor=#000000;" vertex="1" parent="1">
          <mxGeometry x="415" y="750" width="30" height="30" as="geometry" />
        </mxCell>
        <mxCell id="ryvx49HEANuKhNEo4fZP-8" style="edgeStyle=orthogonalEdgeStyle;rounded=0;orthogonalLoop=1;jettySize=auto;html=1;exitX=0.5;exitY=0;exitDx=0;exitDy=0;entryX=0;entryY=0.5;entryDx=0;entryDy=0;" edge="1" parent="1" source="ryvx49HEANuKhNEo4fZP-3" target="ryvx49HEANuKhNEo4fZP-1">
          <mxGeometry relative="1" as="geometry" />
        </mxCell>
        <mxCell id="ryvx49HEANuKhNEo4fZP-3" value="" style="ellipse;whiteSpace=wrap;html=1;aspect=fixed;fillColor=#030303;" vertex="1" parent="1">
          <mxGeometry x="30" y="280" width="30" height="30" as="geometry" />
        </mxCell>
        <mxCell id="ryvx49HEANuKhNEo4fZP-42" style="edgeStyle=orthogonalEdgeStyle;rounded=0;orthogonalLoop=1;jettySize=auto;html=1;exitX=0.5;exitY=1;exitDx=0;exitDy=0;entryX=0.5;entryY=1;entryDx=0;entryDy=0;" edge="1" parent="1" source="ryvx49HEANuKhNEo4fZP-9" target="ryvx49HEANuKhNEo4fZP-2">
          <mxGeometry relative="1" as="geometry" />
        </mxCell>
        <mxCell id="ryvx49HEANuKhNEo4fZP-9" value="Get Result" style="swimlane;whiteSpace=wrap;html=1;startSize=23;" vertex="1" parent="1">
          <mxGeometry x="40" y="370" width="140" height="70" as="geometry" />
        </mxCell>
        <mxCell id="ryvx49HEANuKhNEo4fZP-10" value="getResult()" style="text;html=1;align=left;verticalAlign=middle;resizable=0;points=[];autosize=1;strokeColor=none;fillColor=none;" vertex="1" parent="ryvx49HEANuKhNEo4fZP-9">
          <mxGeometry x="10" y="30" width="80" height="30" as="geometry" />
        </mxCell>
        <mxCell id="ryvx49HEANuKhNEo4fZP-12" style="edgeStyle=orthogonalEdgeStyle;rounded=0;orthogonalLoop=1;jettySize=auto;html=1;entryX=0.455;entryY=-0.01;entryDx=0;entryDy=0;entryPerimeter=0;" edge="1" parent="1" source="ryvx49HEANuKhNEo4fZP-1" target="ryvx49HEANuKhNEo4fZP-9">
          <mxGeometry relative="1" as="geometry">
            <Array as="points">
              <mxPoint x="190" y="265" />
              <mxPoint x="140" y="265" />
              <mxPoint x="140" y="369" />
            </Array>
          </mxGeometry>
        </mxCell>
        <mxCell id="ryvx49HEANuKhNEo4fZP-13" value="Result" style="text;html=1;align=center;verticalAlign=middle;resizable=0;points=[];autosize=1;strokeColor=none;fillColor=none;rotation=1;" vertex="1" parent="1">
          <mxGeometry x="120" y="218" width="60" height="30" as="geometry" />
        </mxCell>
        <mxCell id="ryvx49HEANuKhNEo4fZP-41" style="edgeStyle=orthogonalEdgeStyle;rounded=0;orthogonalLoop=1;jettySize=auto;html=1;exitX=0.5;exitY=1;exitDx=0;exitDy=0;entryX=0;entryY=0.5;entryDx=0;entryDy=0;" edge="1" parent="1" source="ryvx49HEANuKhNEo4fZP-14" target="ryvx49HEANuKhNEo4fZP-2">
          <mxGeometry relative="1" as="geometry" />
        </mxCell>
        <mxCell id="ryvx49HEANuKhNEo4fZP-14" value="Apply For Admission" style="swimlane;whiteSpace=wrap;html=1;startSize=23;" vertex="1" parent="1">
          <mxGeometry x="210" y="370" width="140" height="70" as="geometry" />
        </mxCell>
        <mxCell id="ryvx49HEANuKhNEo4fZP-15" value="submitForm()" style="text;html=1;align=left;verticalAlign=middle;resizable=0;points=[];autosize=1;strokeColor=none;fillColor=none;" vertex="1" parent="ryvx49HEANuKhNEo4fZP-14">
          <mxGeometry x="10" y="30" width="90" height="30" as="geometry" />
        </mxCell>
        <mxCell id="ryvx49HEANuKhNEo4fZP-40" style="edgeStyle=orthogonalEdgeStyle;rounded=0;orthogonalLoop=1;jettySize=auto;html=1;exitX=0.5;exitY=1;exitDx=0;exitDy=0;entryX=0.5;entryY=0;entryDx=0;entryDy=0;" edge="1" parent="1" source="ryvx49HEANuKhNEo4fZP-17" target="ryvx49HEANuKhNEo4fZP-2">
          <mxGeometry relative="1" as="geometry">
            <Array as="points">
              <mxPoint x="430" y="540" />
              <mxPoint x="430" y="540" />
            </Array>
          </mxGeometry>
        </mxCell>
        <mxCell id="ryvx49HEANuKhNEo4fZP-17" value="Submit Form Fillup" style="swimlane;whiteSpace=wrap;html=1;startSize=23;" vertex="1" parent="1">
          <mxGeometry x="370" y="370" width="120" height="70" as="geometry" />
        </mxCell>
        <mxCell id="ryvx49HEANuKhNEo4fZP-18" value="submitForm()" style="text;html=1;align=left;verticalAlign=middle;resizable=0;points=[];autosize=1;strokeColor=none;fillColor=none;" vertex="1" parent="ryvx49HEANuKhNEo4fZP-17">
          <mxGeometry x="10" y="30" width="90" height="30" as="geometry" />
        </mxCell>
        <mxCell id="ryvx49HEANuKhNEo4fZP-20" value="Payment for Admission &amp;amp; Form Fillup" style="swimlane;whiteSpace=wrap;html=1;startSize=23;" vertex="1" parent="1">
          <mxGeometry x="520" y="370" width="230" height="70" as="geometry" />
        </mxCell>
        <mxCell id="ryvx49HEANuKhNEo4fZP-21" value="makePayment()&lt;div&gt;generateReport()&lt;/div&gt;" style="text;html=1;align=left;verticalAlign=middle;resizable=0;points=[];autosize=1;strokeColor=none;fillColor=none;" vertex="1" parent="ryvx49HEANuKhNEo4fZP-20">
          <mxGeometry x="10" y="25" width="110" height="40" as="geometry" />
        </mxCell>
        <mxCell id="ryvx49HEANuKhNEo4fZP-23" value="Admission" style="text;html=1;align=center;verticalAlign=middle;resizable=0;points=[];autosize=1;strokeColor=none;fillColor=none;" vertex="1" parent="1">
          <mxGeometry x="210" y="218" width="80" height="30" as="geometry" />
        </mxCell>
        <mxCell id="ryvx49HEANuKhNEo4fZP-26" value="FormFillup" style="text;html=1;align=center;verticalAlign=middle;resizable=0;points=[];autosize=1;strokeColor=none;fillColor=none;" vertex="1" parent="1">
          <mxGeometry x="330" y="218" width="80" height="30" as="geometry" />
        </mxCell>
        <mxCell id="ryvx49HEANuKhNEo4fZP-27" style="edgeStyle=orthogonalEdgeStyle;rounded=0;orthogonalLoop=1;jettySize=auto;html=1;" edge="1" parent="1">
          <mxGeometry relative="1" as="geometry">
            <mxPoint x="410" y="160" as="sourcePoint" />
            <mxPoint x="573" y="371" as="targetPoint" />
            <Array as="points">
              <mxPoint x="410" y="170" />
              <mxPoint x="410" y="230" />
              <mxPoint x="550" y="230" />
              <mxPoint x="550" y="371" />
            </Array>
          </mxGeometry>
        </mxCell>
        <mxCell id="ryvx49HEANuKhNEo4fZP-29" value="Payment" style="text;html=1;align=center;verticalAlign=middle;resizable=0;points=[];autosize=1;strokeColor=none;fillColor=none;" vertex="1" parent="1">
          <mxGeometry x="480" y="230" width="70" height="30" as="geometry" />
        </mxCell>
        <mxCell id="ryvx49HEANuKhNEo4fZP-38" style="edgeStyle=orthogonalEdgeStyle;rounded=0;orthogonalLoop=1;jettySize=auto;html=1;exitX=1;exitY=0.5;exitDx=0;exitDy=0;entryX=0.5;entryY=1;entryDx=0;entryDy=0;" edge="1" parent="1" source="ryvx49HEANuKhNEo4fZP-34" target="ryvx49HEANuKhNEo4fZP-2">
          <mxGeometry relative="1" as="geometry">
            <Array as="points">
              <mxPoint x="750" y="190" />
              <mxPoint x="800" y="190" />
              <mxPoint x="800" y="800" />
              <mxPoint x="450" y="800" />
              <mxPoint x="450" y="780" />
            </Array>
          </mxGeometry>
        </mxCell>
        <mxCell id="ryvx49HEANuKhNEo4fZP-34" value="Want to Logout" style="swimlane;whiteSpace=wrap;html=1;startSize=23;" vertex="1" parent="1">
          <mxGeometry x="660" y="148" width="90" height="70" as="geometry" />
        </mxCell>
        <mxCell id="ryvx49HEANuKhNEo4fZP-35" value="&lt;div&gt;logout()&lt;/div&gt;" style="text;html=1;align=left;verticalAlign=middle;resizable=0;points=[];autosize=1;strokeColor=none;fillColor=none;" vertex="1" parent="ryvx49HEANuKhNEo4fZP-34">
          <mxGeometry x="10" y="30" width="60" height="30" as="geometry" />
        </mxCell>
        <mxCell id="ryvx49HEANuKhNEo4fZP-37" style="edgeStyle=orthogonalEdgeStyle;rounded=0;orthogonalLoop=1;jettySize=auto;html=1;exitX=1;exitY=0.5;exitDx=0;exitDy=0;entryX=0.467;entryY=-0.012;entryDx=0;entryDy=0;entryPerimeter=0;" edge="1" parent="1" source="ryvx49HEANuKhNEo4fZP-1" target="ryvx49HEANuKhNEo4fZP-34">
          <mxGeometry relative="1" as="geometry" />
        </mxCell>
        <mxCell id="ryvx49HEANuKhNEo4fZP-39" style="edgeStyle=orthogonalEdgeStyle;rounded=0;orthogonalLoop=1;jettySize=auto;html=1;entryX=1;entryY=0.5;entryDx=0;entryDy=0;" edge="1" parent="1" target="ryvx49HEANuKhNEo4fZP-2">
          <mxGeometry relative="1" as="geometry">
            <mxPoint x="590" y="440" as="sourcePoint" />
            <Array as="points">
              <mxPoint x="585" y="605" />
            </Array>
          </mxGeometry>
        </mxCell>
        <mxCell id="ryvx49HEANuKhNEo4fZP-43" value="Authentication" style="text;html=1;align=center;verticalAlign=middle;resizable=0;points=[];autosize=1;strokeColor=none;fillColor=none;" vertex="1" parent="1">
          <mxGeometry x="40" y="140" width="100" height="30" as="geometry" />
        </mxCell>
        <mxCell id="ryvx49HEANuKhNEo4fZP-44" value="Logout" style="text;html=1;align=center;verticalAlign=middle;resizable=0;points=[];autosize=1;strokeColor=none;fillColor=none;" vertex="1" parent="1">
          <mxGeometry x="510" y="110" width="60" height="30" as="geometry" />
        </mxCell>
        <mxCell id="ryvx49HEANuKhNEo4fZP-45" value="Perform operation for logout" style="text;html=1;align=center;verticalAlign=middle;resizable=0;points=[];autosize=1;strokeColor=none;fillColor=none;rotation=-90;" vertex="1" parent="1">
          <mxGeometry x="725" y="378" width="170" height="30" as="geometry" />
        </mxCell>
        <mxCell id="ryvx49HEANuKhNEo4fZP-46" value="Perform operation for Payment" style="text;html=1;align=center;verticalAlign=middle;resizable=0;points=[];autosize=1;strokeColor=none;fillColor=none;rotation=-90;" vertex="1" parent="1">
          <mxGeometry x="510" y="560" width="190" height="30" as="geometry" />
        </mxCell>
        <mxCell id="ryvx49HEANuKhNEo4fZP-47" value="Perform operation for Form Fillup" style="text;html=1;align=center;verticalAlign=middle;resizable=0;points=[];autosize=1;strokeColor=none;fillColor=none;rotation=-90;" vertex="1" parent="1">
          <mxGeometry x="350" y="570" width="200" height="30" as="geometry" />
        </mxCell>
        <mxCell id="ryvx49HEANuKhNEo4fZP-49" value="Perform operation forAdmission&amp;nbsp;" style="text;html=1;align=center;verticalAlign=middle;resizable=0;points=[];autosize=1;strokeColor=none;fillColor=none;rotation=-90;" vertex="1" parent="1">
          <mxGeometry x="210" y="580" width="200" height="30" as="geometry" />
        </mxCell>
        <mxCell id="ryvx49HEANuKhNEo4fZP-50" value="Get result from Database&amp;nbsp;" style="text;html=1;align=center;verticalAlign=middle;resizable=0;points=[];autosize=1;strokeColor=none;fillColor=none;rotation=-90;" vertex="1" parent="1">
          <mxGeometry x="60" y="590" width="160" height="30" as="geometry" />
        </mxCell>
        <mxCell id="ryvx49HEANuKhNEo4fZP-51" value="User" style="text;html=1;align=center;verticalAlign=middle;resizable=0;points=[];autosize=1;strokeColor=none;fillColor=none;" vertex="1" parent="1">
          <mxGeometry x="-5" y="248" width="50" height="30" as="geometry" />
        </mxCell>
      </root>
    </mxGraphModel>
  </diagram>
  <diagram id="GC0qX1uwbs_lvhYs1h-X" name="Page-2">
    <mxGraphModel dx="1804" dy="-519" grid="1" gridSize="10" guides="1" tooltips="1" connect="1" arrows="1" fold="1" page="1" pageScale="1" pageWidth="850" pageHeight="1100" math="0" shadow="0">
      <root>
        <mxCell id="0" />
        <mxCell id="1" parent="0" />
        <mxCell id="67Ncf5qqR8kj8VulY53q-1" value="" style="ellipse;html=1;shape=endState;fillColor=#000000;strokeColor=#000000;" vertex="1" parent="1">
          <mxGeometry x="750" y="1560" width="30" height="30" as="geometry" />
        </mxCell>
        <mxCell id="67Ncf5qqR8kj8VulY53q-2" style="rounded=0;orthogonalLoop=1;jettySize=auto;html=1;exitX=1;exitY=0;exitDx=0;exitDy=0;entryX=0;entryY=0.5;entryDx=0;entryDy=0;" edge="1" parent="1" source="67Ncf5qqR8kj8VulY53q-5" target="67Ncf5qqR8kj8VulY53q-7">
          <mxGeometry relative="1" as="geometry" />
        </mxCell>
        <mxCell id="67Ncf5qqR8kj8VulY53q-3" style="rounded=0;orthogonalLoop=1;jettySize=auto;html=1;exitX=1;exitY=0.5;exitDx=0;exitDy=0;entryX=0;entryY=0.5;entryDx=0;entryDy=0;" edge="1" parent="1" source="67Ncf5qqR8kj8VulY53q-5" target="67Ncf5qqR8kj8VulY53q-10">
          <mxGeometry relative="1" as="geometry" />
        </mxCell>
        <mxCell id="67Ncf5qqR8kj8VulY53q-4" style="rounded=0;orthogonalLoop=1;jettySize=auto;html=1;exitX=1;exitY=1;exitDx=0;exitDy=0;entryX=0;entryY=0.75;entryDx=0;entryDy=0;" edge="1" parent="1" source="67Ncf5qqR8kj8VulY53q-5" target="67Ncf5qqR8kj8VulY53q-13">
          <mxGeometry relative="1" as="geometry" />
        </mxCell>
        <mxCell id="67Ncf5qqR8kj8VulY53q-5" value="" style="ellipse;whiteSpace=wrap;html=1;aspect=fixed;fillColor=#030303;" vertex="1" parent="1">
          <mxGeometry x="-50" y="1490" width="30" height="30" as="geometry" />
        </mxCell>
        <mxCell id="67Ncf5qqR8kj8VulY53q-6" style="edgeStyle=orthogonalEdgeStyle;rounded=0;orthogonalLoop=1;jettySize=auto;html=1;exitX=1;exitY=0.5;exitDx=0;exitDy=0;entryX=0;entryY=0.5;entryDx=0;entryDy=0;" edge="1" parent="1" source="67Ncf5qqR8kj8VulY53q-7" target="67Ncf5qqR8kj8VulY53q-1">
          <mxGeometry relative="1" as="geometry" />
        </mxCell>
        <mxCell id="67Ncf5qqR8kj8VulY53q-7" value="Save Admission To Database" style="swimlane;whiteSpace=wrap;html=1;startSize=30;" vertex="1" parent="1">
          <mxGeometry x="140" y="1400" width="160" height="100" as="geometry" />
        </mxCell>
        <mxCell id="67Ncf5qqR8kj8VulY53q-8" value="&lt;div style=&quot;&quot;&gt;&lt;span style=&quot;background-color: initial;&quot;&gt;create()&lt;/span&gt;&lt;/div&gt;&lt;div&gt;&lt;span style=&quot;background-color: initial;&quot;&gt;validateInput()&lt;/span&gt;&lt;/div&gt;&lt;div&gt;&lt;br&gt;&lt;/div&gt;" style="text;html=1;align=left;verticalAlign=middle;resizable=0;points=[];autosize=1;strokeColor=none;fillColor=none;" vertex="1" parent="67Ncf5qqR8kj8VulY53q-7">
          <mxGeometry x="10" y="40" width="100" height="60" as="geometry" />
        </mxCell>
        <mxCell id="67Ncf5qqR8kj8VulY53q-9" style="edgeStyle=orthogonalEdgeStyle;rounded=0;orthogonalLoop=1;jettySize=auto;html=1;exitX=1;exitY=0.5;exitDx=0;exitDy=0;entryX=0;entryY=1;entryDx=0;entryDy=0;" edge="1" parent="1" source="67Ncf5qqR8kj8VulY53q-10" target="67Ncf5qqR8kj8VulY53q-1">
          <mxGeometry relative="1" as="geometry">
            <Array as="points">
              <mxPoint x="300" y="1620" />
              <mxPoint x="754" y="1620" />
            </Array>
          </mxGeometry>
        </mxCell>
        <mxCell id="67Ncf5qqR8kj8VulY53q-10" value="Get Admission From database" style="swimlane;whiteSpace=wrap;html=1;startSize=30;" vertex="1" parent="1">
          <mxGeometry x="140" y="1540" width="160" height="100" as="geometry" />
        </mxCell>
        <mxCell id="67Ncf5qqR8kj8VulY53q-11" value="&lt;div style=&quot;&quot;&gt;&lt;span style=&quot;background-color: initial;&quot;&gt;findOne()&lt;/span&gt;&lt;/div&gt;&lt;div style=&quot;&quot;&gt;&lt;span style=&quot;background-color: initial;&quot;&gt;findAll()&lt;/span&gt;&lt;/div&gt;" style="text;html=1;align=left;verticalAlign=middle;resizable=0;points=[];autosize=1;strokeColor=none;fillColor=none;" vertex="1" parent="67Ncf5qqR8kj8VulY53q-10">
          <mxGeometry x="10" y="43" width="70" height="40" as="geometry" />
        </mxCell>
        <mxCell id="67Ncf5qqR8kj8VulY53q-12" style="edgeStyle=orthogonalEdgeStyle;rounded=0;orthogonalLoop=1;jettySize=auto;html=1;exitX=1;exitY=0.5;exitDx=0;exitDy=0;entryX=0.5;entryY=1;entryDx=0;entryDy=0;" edge="1" parent="1" source="67Ncf5qqR8kj8VulY53q-13" target="67Ncf5qqR8kj8VulY53q-1">
          <mxGeometry relative="1" as="geometry" />
        </mxCell>
        <mxCell id="67Ncf5qqR8kj8VulY53q-13" value="Update Admission Status" style="swimlane;whiteSpace=wrap;html=1;startSize=30;" vertex="1" parent="1">
          <mxGeometry x="140" y="1690" width="160" height="100" as="geometry" />
        </mxCell>
        <mxCell id="67Ncf5qqR8kj8VulY53q-14" value="&lt;div style=&quot;&quot;&gt;&lt;span style=&quot;background-color: initial;&quot;&gt;update()&lt;/span&gt;&lt;br&gt;&lt;/div&gt;" style="text;html=1;align=left;verticalAlign=middle;resizable=0;points=[];autosize=1;strokeColor=none;fillColor=none;" vertex="1" parent="67Ncf5qqR8kj8VulY53q-13">
          <mxGeometry x="10" y="48" width="70" height="30" as="geometry" />
        </mxCell>
        <mxCell id="67Ncf5qqR8kj8VulY53q-15" value="save to database" style="text;html=1;align=center;verticalAlign=middle;resizable=0;points=[];autosize=1;strokeColor=none;fillColor=none;" vertex="1" parent="1">
          <mxGeometry x="385" y="1418" width="110" height="30" as="geometry" />
        </mxCell>
        <mxCell id="67Ncf5qqR8kj8VulY53q-16" value="get data from database" style="text;html=1;align=center;verticalAlign=middle;resizable=0;points=[];autosize=1;strokeColor=none;fillColor=none;" vertex="1" parent="1">
          <mxGeometry x="345" y="1588" width="150" height="30" as="geometry" />
        </mxCell>
        <mxCell id="67Ncf5qqR8kj8VulY53q-17" value="update data from database" style="text;html=1;align=center;verticalAlign=middle;resizable=0;points=[];autosize=1;strokeColor=none;fillColor=none;" vertex="1" parent="1">
          <mxGeometry x="350" y="1708" width="170" height="30" as="geometry" />
        </mxCell>
      </root>
    </mxGraphModel>
  </diagram>
  <diagram id="KK_DNNgMaUmEjGFYri3v" name="Page-3">
    <mxGraphModel dx="1804" dy="-519" grid="1" gridSize="10" guides="1" tooltips="1" connect="1" arrows="1" fold="1" page="1" pageScale="1" pageWidth="850" pageHeight="1100" math="0" shadow="0">
      <root>
        <mxCell id="0" />
        <mxCell id="1" parent="0" />
        <mxCell id="Fd19-csGAZ5gUdmTmwMc-1" value="" style="ellipse;html=1;shape=endState;fillColor=#000000;strokeColor=#000000;" vertex="1" parent="1">
          <mxGeometry x="730" y="2000" width="30" height="30" as="geometry" />
        </mxCell>
        <mxCell id="Fd19-csGAZ5gUdmTmwMc-2" style="rounded=0;orthogonalLoop=1;jettySize=auto;html=1;exitX=1;exitY=0;exitDx=0;exitDy=0;entryX=0;entryY=0.5;entryDx=0;entryDy=0;" edge="1" parent="1" source="Fd19-csGAZ5gUdmTmwMc-5" target="Fd19-csGAZ5gUdmTmwMc-7">
          <mxGeometry relative="1" as="geometry" />
        </mxCell>
        <mxCell id="Fd19-csGAZ5gUdmTmwMc-3" style="rounded=0;orthogonalLoop=1;jettySize=auto;html=1;exitX=1;exitY=0.5;exitDx=0;exitDy=0;entryX=0;entryY=0.5;entryDx=0;entryDy=0;" edge="1" parent="1" source="Fd19-csGAZ5gUdmTmwMc-5" target="Fd19-csGAZ5gUdmTmwMc-10">
          <mxGeometry relative="1" as="geometry" />
        </mxCell>
        <mxCell id="Fd19-csGAZ5gUdmTmwMc-4" style="rounded=0;orthogonalLoop=1;jettySize=auto;html=1;exitX=1;exitY=1;exitDx=0;exitDy=0;entryX=0;entryY=0.75;entryDx=0;entryDy=0;" edge="1" parent="1" source="Fd19-csGAZ5gUdmTmwMc-5" target="Fd19-csGAZ5gUdmTmwMc-13">
          <mxGeometry relative="1" as="geometry" />
        </mxCell>
        <mxCell id="Fd19-csGAZ5gUdmTmwMc-5" value="" style="ellipse;whiteSpace=wrap;html=1;aspect=fixed;fillColor=#030303;" vertex="1" parent="1">
          <mxGeometry x="-70" y="1930" width="30" height="30" as="geometry" />
        </mxCell>
        <mxCell id="Fd19-csGAZ5gUdmTmwMc-6" style="edgeStyle=orthogonalEdgeStyle;rounded=0;orthogonalLoop=1;jettySize=auto;html=1;exitX=1;exitY=0.5;exitDx=0;exitDy=0;entryX=0;entryY=0.5;entryDx=0;entryDy=0;" edge="1" parent="1" source="Fd19-csGAZ5gUdmTmwMc-7" target="Fd19-csGAZ5gUdmTmwMc-1">
          <mxGeometry relative="1" as="geometry" />
        </mxCell>
        <mxCell id="Fd19-csGAZ5gUdmTmwMc-7" value="Save FormFillUp To Database" style="swimlane;whiteSpace=wrap;html=1;startSize=30;" vertex="1" parent="1">
          <mxGeometry x="120" y="1840" width="160" height="100" as="geometry" />
        </mxCell>
        <mxCell id="Fd19-csGAZ5gUdmTmwMc-8" value="&lt;div style=&quot;&quot;&gt;&lt;span style=&quot;background-color: initial;&quot;&gt;create()&lt;/span&gt;&lt;/div&gt;&lt;div&gt;&lt;span style=&quot;background-color: initial;&quot;&gt;validateInput()&lt;/span&gt;&lt;/div&gt;&lt;div&gt;&lt;br&gt;&lt;/div&gt;" style="text;html=1;align=left;verticalAlign=middle;resizable=0;points=[];autosize=1;strokeColor=none;fillColor=none;" vertex="1" parent="Fd19-csGAZ5gUdmTmwMc-7">
          <mxGeometry x="10" y="40" width="100" height="60" as="geometry" />
        </mxCell>
        <mxCell id="Fd19-csGAZ5gUdmTmwMc-9" style="edgeStyle=orthogonalEdgeStyle;rounded=0;orthogonalLoop=1;jettySize=auto;html=1;exitX=1;exitY=0.5;exitDx=0;exitDy=0;entryX=0;entryY=1;entryDx=0;entryDy=0;" edge="1" parent="1" source="Fd19-csGAZ5gUdmTmwMc-10" target="Fd19-csGAZ5gUdmTmwMc-1">
          <mxGeometry relative="1" as="geometry">
            <Array as="points">
              <mxPoint x="280" y="2060" />
              <mxPoint x="734" y="2060" />
            </Array>
          </mxGeometry>
        </mxCell>
        <mxCell id="Fd19-csGAZ5gUdmTmwMc-10" value="Get FormFillUp From database" style="swimlane;whiteSpace=wrap;html=1;startSize=30;" vertex="1" parent="1">
          <mxGeometry x="120" y="1980" width="160" height="100" as="geometry" />
        </mxCell>
        <mxCell id="Fd19-csGAZ5gUdmTmwMc-11" value="&lt;div style=&quot;&quot;&gt;&lt;span style=&quot;background-color: initial;&quot;&gt;findOne()&lt;/span&gt;&lt;/div&gt;&lt;div style=&quot;&quot;&gt;&lt;span style=&quot;background-color: initial;&quot;&gt;findAll()&lt;/span&gt;&lt;/div&gt;" style="text;html=1;align=left;verticalAlign=middle;resizable=0;points=[];autosize=1;strokeColor=none;fillColor=none;" vertex="1" parent="Fd19-csGAZ5gUdmTmwMc-10">
          <mxGeometry x="10" y="43" width="70" height="40" as="geometry" />
        </mxCell>
        <mxCell id="Fd19-csGAZ5gUdmTmwMc-12" style="edgeStyle=orthogonalEdgeStyle;rounded=0;orthogonalLoop=1;jettySize=auto;html=1;exitX=1;exitY=0.5;exitDx=0;exitDy=0;entryX=0.5;entryY=1;entryDx=0;entryDy=0;" edge="1" parent="1" source="Fd19-csGAZ5gUdmTmwMc-13" target="Fd19-csGAZ5gUdmTmwMc-1">
          <mxGeometry relative="1" as="geometry" />
        </mxCell>
        <mxCell id="Fd19-csGAZ5gUdmTmwMc-13" value="Update FormFillUp Status" style="swimlane;whiteSpace=wrap;html=1;startSize=30;" vertex="1" parent="1">
          <mxGeometry x="120" y="2130" width="160" height="100" as="geometry" />
        </mxCell>
        <mxCell id="Fd19-csGAZ5gUdmTmwMc-14" value="&lt;div style=&quot;&quot;&gt;&lt;span style=&quot;background-color: initial;&quot;&gt;update()&lt;/span&gt;&lt;br&gt;&lt;/div&gt;" style="text;html=1;align=left;verticalAlign=middle;resizable=0;points=[];autosize=1;strokeColor=none;fillColor=none;" vertex="1" parent="Fd19-csGAZ5gUdmTmwMc-13">
          <mxGeometry x="10" y="48" width="70" height="30" as="geometry" />
        </mxCell>
        <mxCell id="Fd19-csGAZ5gUdmTmwMc-15" value="save to database" style="text;html=1;align=center;verticalAlign=middle;resizable=0;points=[];autosize=1;strokeColor=none;fillColor=none;" vertex="1" parent="1">
          <mxGeometry x="365" y="1858" width="110" height="30" as="geometry" />
        </mxCell>
        <mxCell id="Fd19-csGAZ5gUdmTmwMc-16" value="get data from database" style="text;html=1;align=center;verticalAlign=middle;resizable=0;points=[];autosize=1;strokeColor=none;fillColor=none;" vertex="1" parent="1">
          <mxGeometry x="325" y="2028" width="150" height="30" as="geometry" />
        </mxCell>
        <mxCell id="Fd19-csGAZ5gUdmTmwMc-17" value="update data from database" style="text;html=1;align=center;verticalAlign=middle;resizable=0;points=[];autosize=1;strokeColor=none;fillColor=none;" vertex="1" parent="1">
          <mxGeometry x="330" y="2148" width="170" height="30" as="geometry" />
        </mxCell>
      </root>
    </mxGraphModel>
  </diagram>
</mxfile>
